<?xml version="1.0" encoding="UTF-8"?>
<svg id="Layer_1" xmlns="http://www.w3.org/2000/svg" version="1.1" viewBox="0 0 1920 710.4">
  <!-- Generator: Adobe Illustrator 30.2.1, SVG Export Plug-In . SVG Version: 2.1.1 Build 1)  -->
  <defs>
    <style>
      .st0 {
        fill: #ff8e26;
      }

      .st1 {
        fill: #fff;
      }

      .st2 {
        fill: #804713;
      }

      .st3 {
        fill: #423b3d;
      }

      .st4 {
        fill: #454545;
      }
    </style>
  </defs>
  <g>
    <path class="st4" d="M1125.2,279.4l21.1,2.5c-9.4-3.9-23.3-10.8-36.5-25.3-.8-.2-3.1-.4-4.9-.5l-9.2-.6,8.9-2.6c.8-.2,1.7-.5,2.3-.8-4.1-8.9-12.7-36-16-46.3l-7.9,9.9,7.1-15.6c2.4-7,20.6-34.2,21.4-35.4l.4-.6h.8c2.7-.3,26.6-2.4,31.9,1.8.5.4,1,.9,1.5,1.5-2-4.6-4.6-8.8-8-11.2-3.7-2.6-15-9-17.9-9.7-5.2-1.3-23.5,1-33.6,3.5l8.6,3.5-16.8-.4c-5.6,4.5-24.2,21.7-29.5,29.6-10.5,15.8-15.3,31.9-17.5,42.7-.3,1.4-.5,3.7-.7,6.4-.4,4.7-.8,10.9-2.2,16.1l23.9-7-29,16.4c-5.4,4.3-26.9,13.9-39.1,18.2l31,7.8,49.1-8.4h.2l60.6,4.5h0Z"/>
    <polyline class="st4" points="1063.1 564.6 956.9 446 965.8 343 993.5 332.3 993.5 322.6 1023.8 318 1023.8 324.9 1012.7 328.6 1017.7 337.6 1060.4 360"/>
    <polygon class="st3" points="1067.7 569.8 1071.5 569.8 1182.2 446 1173.4 343 1145.7 332.3 1145.7 322.6 1115.3 318 1115.3 324.9 1126.5 328.6 1121.5 337.6 1075.3 361.8 1063.8 361.8 1067.7 569.8"/>
    <path class="st0" d="M1107.9,281.3l-43.5-3.3-34.8,6c-3.9,6.7-6.1,14.5-6.1,22.8,0,25.4,20.7,46.1,46.1,46.1s46.1-20.7,46.1-46.1-2.9-18.2-7.8-25.5M1085.5,330.4h-31.8l6.6-15.5c-4.8-3.1-7.9-8.4-7.9-14.4,0-9.5,7.7-17.2,17.2-17.2s17.2,7.7,17.2,17.2-3.1,11.3-7.9,14.4l6.6,15.5h0Z"/>
    <polygon class="st2" points="1080.7 327.2 1072.1 307.1 1067.1 307.1 1058.5 327.2 1080.7 327.2"/>
    <path class="st2" d="M1069.6,286.5c-7.7,0-14,6.3-14,14s6.3,14,14,14,14-6.3,14-14-6.3-14-14-14"/>
  </g>
  <path class="st1" d="M254.6,404.8v11.6c0,23.7-13.5,42.2-43.8,42.2s-43.8-18.5-43.8-42.2v-104.7c0-23.7,13.5-42.2,43.8-42.2s43.8,18.5,43.8,42.2v12.7h-13.8v-12.7c0-17.6-8.3-29.8-30-29.8s-30,12.1-30,29.8v104.7c0,17.6,8.3,29.8,30,29.8s30-12.1,30-29.8v-11.6h13.8Z"/>
  <rect class="st1" x="291.8" y="259.2" width="13.8" height="196.5"/>
  <path class="st1" d="M429.6,416.3c0,23.7-12.4,42.2-42.7,42.2s-42.7-18.5-42.7-42.2v-76.3c0-23.7,12.4-42.2,42.7-42.2s42.7,18.5,42.7,42.2v76.3ZM415.8,340c0-17.6-7.2-29.8-28.9-29.8s-28.9,12.1-28.9,29.8v76.3c0,17.6,7.2,29.8,28.9,29.8s28.9-12.1,28.9-29.8v-76.3Z"/>
  <path class="st1" d="M533.8,363.4v-25.6c0-17.6-7.4-27.6-29.2-27.6s-28.9,9.9-28.9,27.6v7.7h-13.8v-7.7c0-23.7,12.4-40,42.7-40s42.7,16.3,42.7,40v118h-13.5v-17.6c-4.4,12.1-16.3,19-34.2,19-27.3,0-39.7-14.1-39.7-37.2v-7.4c0-17.6,9.4-30.1,32.5-36.9l30-8.9v13l-25.5,7.4c-17.6,5.2-23.4,13.2-23.4,25.4v7.7c0,15.2,7.4,25.1,27,25.1s33.4-14.1,33.4-29.2v-52.8h0Z"/>
  <path class="st1" d="M587.2,259.2h13.8v196.5h-13.8v-196.5ZM667.2,300.6l-36.9,75,39.1,80.2h-15.4l-39.7-79.7,37.8-75.5h15.1Z"/>
  <path class="st1" d="M722.6,369.5h42.4v-29.5c0-17.6-7.4-29.8-29.2-29.8s-29.2,12.1-29.2,29.8v76.3c0,17.6,7.4,29.8,29.2,29.8s29.2-12.1,29.2-29.8v-9.4h13.8v9.4c0,23.7-12.7,42.2-43,42.2s-43-18.5-43-42.2v-76.3c0-23.7,12.7-42.2,43-42.2s43,18.5,43,42.2v41.9h-56.1v-12.4h-.1Z"/>
  <path class="st1" d="M814.6,341.9c0-24.8,14.1-40,37.5-40s30.3,12.4,32.2,17.1v-59.8h13.8v196.5h-13.5v-16.3c-1.9,4.7-10.2,17.1-32.5,17.1s-37.5-15.2-37.5-40v-74.6h0ZM884.3,341.1c0-17.4-13.2-26.7-29.2-26.7s-26.7,9.7-26.7,27.6v74.7c0,17.9,8.8,27.6,26.7,27.6s29.2-9.4,29.2-26.7v-76.5Z"/>
  <path class="st1" d="M1323.4,404.8v11.6c0,23.7-13.5,42.2-43.8,42.2s-43.8-18.5-43.8-42.2v-104.7c0-23.7,13.5-42.2,43.8-42.2s43.8,18.5,43.8,42.2v12.7h-13.8v-12.7c0-17.6-8.3-29.8-30-29.8s-30,12.1-30,29.8v104.7c0,17.6,8.3,29.8,30,29.8s30-12.1,30-29.8v-11.6h13.8Z"/>
  <path class="st1" d="M1394.2,435.7c3.3,14.3,5.4,14.7,2.6,25.8l-.4,1.4c-5.2,20.4-19.3,34.2-40.8,34.2h-7.4v-12.4h7.4c17.9,0,28.7-15.4,28.7-33.3s-.5-8-1.6-12.1l-37.2-138.6h14.3l19,73c9.9,38.3,13.5,54,13.5,54l1.9,8ZM1399.1,398.8c2.1-8.7,1.8-7.6,6.1-25.2l17.6-73h14.3l-31.8,125.9-6.2-27.7h0Z"/>
  <path class="st1" d="M1476.9,259.2v57.1c1.9-4.7,10.2-17.1,32.5-17.1s37.5,15.2,37.5,40v75.2c0,25.6-16,41.3-40.2,41.3h-43.3v-196.5h13.5ZM1477.2,443.4h26.5c19,0,29.5-9.9,29.5-28.9v-75.2c0-17.9-8.8-27.6-26.7-27.6s-29.2,9.4-29.2,26.7v105h-.1Z"/>
  <path class="st1" d="M1758,314.1c-2.8-.6-5.8-.8-10.8-.8-13.5,0-26.2,11-26.2,27.8v114.7h-13.8v-155.2h13.5v19c2.5-8,11.9-19.8,32-19.8s3.6,0,5.2.3v14h.1Z"/>
  <path class="st1" d="M1612.6,369.5h42.4v-29.5c0-17.6-7.4-29.8-29.2-29.8s-29.2,12.1-29.2,29.8v76.3c0,17.6,7.4,29.8,29.2,29.8s29.2-12.1,29.2-29.8v-9.4h13.8v9.4c0,23.7-12.7,42.2-43,42.2s-43-18.5-43-42.2v-76.3c0-23.7,12.7-42.2,43-42.2s43,18.5,43,42.2v41.9h-56.1v-12.4h-.1Z"/>
</svg>