<?xml version="1.0" encoding="UTF-8"?>
<svg id="Layer_1" xmlns="http://www.w3.org/2000/svg" version="1.1" xmlns:xlink="http://www.w3.org/1999/xlink" viewBox="0 0 1920 1080">
  <!-- Generator: Adobe Illustrator 30.2.1, SVG Export Plug-In . SVG Version: 2.1.1 Build 1)  -->
  <defs>
    <style>
      .st0 {
        clip-path: url(#clippath-6);
      }

      .st1 {
        clip-path: url(#clippath-7);
      }

      .st2 {
        clip-path: url(#clippath-17);
      }

      .st3 {
        clip-path: url(#clippath-15);
      }

      .st4 {
        clip-path: url(#clippath-18);
      }

      .st5 {
        clip-path: url(#clippath-4);
      }

      .st6 {
        fill: #ff8e26;
      }

      .st7 {
        clip-path: url(#clippath-9);
      }

      .st8 {
        clip-path: url(#clippath-10);
      }

      .st9 {
        fill: #804713;
      }

      .st10 {
        fill: #423b3d;
      }

      .st11 {
        clip-path: url(#clippath-11);
      }

      .st12 {
        fill: none;
      }

      .st13 {
        clip-path: url(#clippath-1);
      }

      .st14 {
        clip-path: url(#clippath-5);
      }

      .st15 {
        clip-path: url(#clippath-8);
      }

      .st16 {
        fill: #454545;
      }

      .st17 {
        clip-path: url(#clippath-3);
      }

      .st18 {
        clip-path: url(#clippath-12);
      }

      .st19 {
        clip-path: url(#clippath-14);
      }

      .st20 {
        fill: #2e292a;
      }

      .st21 {
        clip-path: url(#clippath-16);
      }

      .st22 {
        clip-path: url(#clippath-2);
      }

      .st23 {
        clip-path: url(#clippath-13);
      }

      .st24 {
        clip-path: url(#clippath);
      }
    </style>
    <clipPath id="clippath">
      <rect class="st12" x="6.2" y="8.6" width="1919.8" height="1079.9"/>
    </clipPath>
    <clipPath id="clippath-1">
      <rect class="st12" x="6.2" y="8.6" width="1919.8" height="1079.9"/>
    </clipPath>
    <clipPath id="clippath-2">
      <rect class="st12" x="6.2" y="8.6" width="1919.8" height="1079.9"/>
    </clipPath>
    <clipPath id="clippath-3">
      <rect class="st12" x="6.2" y="8.6" width="1919.8" height="1079.9"/>
    </clipPath>
    <clipPath id="clippath-4">
      <rect class="st12" x="6.2" y="8.6" width="1919.8" height="1079.9"/>
    </clipPath>
    <clipPath id="clippath-5">
      <rect class="st12" x="6.2" y="8.6" width="1919.8" height="1079.9"/>
    </clipPath>
    <clipPath id="clippath-6">
      <rect class="st12" x="6.2" y="8.6" width="1919.8" height="1079.9"/>
    </clipPath>
    <clipPath id="clippath-7">
      <rect class="st12" x="6.2" y="8.6" width="1919.8" height="1079.9"/>
    </clipPath>
    <clipPath id="clippath-8">
      <rect class="st12" x="6.2" y="8.6" width="1919.8" height="1079.9"/>
    </clipPath>
    <clipPath id="clippath-9">
      <rect class="st12" x="6.2" y="8.6" width="1919.8" height="1079.9"/>
    </clipPath>
    <clipPath id="clippath-10">
      <rect class="st12" x="6.2" y="8.6" width="1919.8" height="1079.9"/>
    </clipPath>
    <clipPath id="clippath-11">
      <rect class="st12" x="6.2" y="8.6" width="1919.8" height="1079.9"/>
    </clipPath>
    <clipPath id="clippath-12">
      <rect class="st12" x="6.2" y="8.6" width="1919.8" height="1079.9"/>
    </clipPath>
    <clipPath id="clippath-13">
      <rect class="st12" x="6.2" y="8.6" width="1919.8" height="1079.9"/>
    </clipPath>
    <clipPath id="clippath-14">
      <rect class="st12" x="6.2" y="8.6" width="1919.8" height="1079.9"/>
    </clipPath>
    <clipPath id="clippath-15">
      <rect class="st12" x="6.2" y="8.6" width="1919.8" height="1079.9"/>
    </clipPath>
    <clipPath id="clippath-16">
      <rect class="st12" x="6.2" y="8.6" width="1919.8" height="1079.9"/>
    </clipPath>
    <clipPath id="clippath-17">
      <rect class="st12" x="6.2" y="8.6" width="1919.8" height="1079.9"/>
    </clipPath>
    <clipPath id="clippath-18">
      <rect class="st12" x="6.2" y="8.6" width="1919.8" height="1079.9"/>
    </clipPath>
  </defs>
  <g class="st24">
    <path class="st16" d="M1131.6,407.2l38,4.5c-16.9-7.1-41.9-19.5-65.6-45.5-1.5-.3-5.5-.7-8.9-.9l-16.6-1,16-4.6c1.5-.4,3-1,4.1-1.4-7.4-16.1-22.9-64.8-28.8-83.3l-14.2,17.9,12.8-28.2c4.4-12.5,37.1-61.7,38.5-63.7l.8-1.1h1.4c4.9-.5,47.8-4.3,57.4,3.3.9.7,1.8,1.6,2.6,2.6-3.5-8.4-8.2-15.8-14.4-20.2-6.6-4.7-27-16.3-32.2-17.5-9.4-2.3-42.4,1.8-60.5,6.4l15.4,6.3-30.3-.7c-10.1,8.1-43.5,39-53,53.2-18.8,28.4-27.6,57.4-31.6,76.8-.5,2.5-.8,6.6-1.2,11.5-.6,8.5-1.5,19.6-3.9,29l43.1-12.6-52.2,29.5c-9.8,7.7-48.5,25.1-70.4,32.7l55.8,14,88.3-15.2h.3l109.3,8.2h0Z"/>
  </g>
  <g class="st13">
    <polyline class="st16" points="1019.8 920.6 828.8 707.1 844.7 521.6 894.5 502.3 894.5 484.9 949.2 476.6 949.2 489.1 929.1 495.7 938.1 511.9 1015.1 552.3"/>
  </g>
  <g class="st22">
    <polygon class="st10" points="1028.1 929.9 1035 929.9 1234.2 707.1 1218.3 521.6 1168.5 502.3 1168.5 484.9 1113.9 476.6 1113.9 489.1 1133.9 495.7 1124.9 511.9 1041.9 555.5 1021.1 555.5 1028.1 929.9"/>
  </g>
  <g class="st17">
    <path class="st6" d="M1031.5,419.9c-13.9,0-25.2,11.3-25.2,25.2s4.3,16,10.8,20.6l6.2-14.5h16.6l6.1,14.5c6.5-4.6,10.7-12.1,10.7-20.6,0-13.9-11.3-25.2-25.2-25.2"/>
  </g>
  <g class="st5">
    <path class="st6" d="M1100.5,410.6l-78.4-6-62.6,10.8c-7,12.1-11,26.2-11,41.1,0,45.7,37.2,82.9,82.9,82.9s82.9-37.2,82.9-82.9-5-32.7-13.8-45.9M1060.1,499h-57.2l11.9-27.9c-8.6-5.5-14.2-15.1-14.2-26,0-17.1,13.9-31,31-31s31,13.9,31,31-5.7,20.4-14.2,26l11.7,27.9Z"/>
  </g>
  <g class="st14">
    <polygon class="st9" points="1051.4 493.2 1036.1 457 1027 457 1011.6 493.2 1051.4 493.2"/>
  </g>
  <g class="st0">
    <path class="st9" d="M1031.5,419.9c-13.9,0-25.2,11.3-25.2,25.2s11.3,25.2,25.2,25.2,25.2-11.3,25.2-25.2-11.3-25.2-25.2-25.2"/>
  </g>
  <g class="st1">
    <path class="st20" d="M572.3,324v6.5c0,13.4-7.6,23.8-24.7,23.8s-24.7-10.4-24.7-23.8v-59c0-13.4,7.6-23.8,24.7-23.8s24.7,10.4,24.7,23.8v7.1h-7.8v-7.1c0-9.9-4.7-16.8-16.9-16.8s-16.9,6.8-16.9,16.8v59c0,9.9,4.7,16.8,16.9,16.8s16.9-6.8,16.9-16.8v-6.5h7.8Z"/>
  </g>
  <g class="st15">
    <rect class="st20" x="593.3" y="242" width="7.8" height="110.7"/>
  </g>
  <g class="st7">
    <path class="st20" d="M670.9,330.5c0,13.4-7,23.8-24.1,23.8s-24.1-10.4-24.1-23.8v-43c0-13.4,7-23.8,24.1-23.8s24.1,10.4,24.1,23.8v43ZM663.2,287.5c0-9.9-4-16.8-16.3-16.8s-16.3,6.8-16.3,16.8v43c0,9.9,4,16.8,16.3,16.8s16.3-6.8,16.3-16.8v-43Z"/>
  </g>
  <g class="st8">
    <path class="st20" d="M729.6,300.7v-14.4c0-9.9-4.2-15.5-16.5-15.5s-16.3,5.6-16.3,15.5v4.4h-7.8v-4.4c0-13.4,7-22.5,24.1-22.5s24.1,9.2,24.1,22.5v66.5h-7.6v-9.9c-2.5,6.8-9.2,10.7-19.3,10.7-15.4,0-22.4-7.9-22.4-21v-4.2c0-9.9,5.3-16.9,18.3-20.8l16.9-5v7.3l-14.4,4.2c-9.9,3-13.2,7.5-13.2,14.3v4.4c0,8.5,4.2,14.1,15.2,14.1s18.8-7.9,18.8-16.5v-29.7h.1Z"/>
  </g>
  <g class="st11">
    <path class="st20" d="M759.7,242h7.8v110.7h-7.8v-110.7h0ZM804.8,265.3l-20.8,42.2,22.1,45.2h-8.7l-22.4-44.9,21.3-42.5h8.5Z"/>
  </g>
  <g class="st18">
    <path class="st20" d="M836,304.1h23.9v-16.6c0-9.9-4.2-16.8-16.5-16.8s-16.5,6.8-16.5,16.8v43c0,9.9,4.2,16.8,16.5,16.8s16.5-6.8,16.5-16.8v-5.3h7.8v5.3c0,13.4-7.1,23.8-24.2,23.8s-24.2-10.4-24.2-23.8v-43c0-13.4,7.1-23.8,24.2-23.8s24.2,10.4,24.2,23.8v23.6h-31.6v-7h-.1Z"/>
  </g>
  <g class="st23">
    <path class="st20" d="M887.8,288.6c0-14,7.9-22.5,21.1-22.5s17.1,7,18.2,9.6v-33.7h7.8v110.7h-7.6v-9.1c-1.1,2.6-5.8,9.6-18.3,9.6s-21.1-8.5-21.1-22.5v-42.1h-.1ZM927.1,288.1c0-9.8-7.4-15.1-16.5-15.1s-15.1,5.4-15.1,15.5v42.1c0,10.1,5,15.5,15.1,15.5s16.5-5.3,16.5-15.1v-42.9Z"/>
  </g>
  <g class="st19">
    <path class="st20" d="M1174.5,324v6.5c0,13.4-7.6,23.8-24.7,23.8s-24.7-10.4-24.7-23.8v-59c0-13.4,7.6-23.8,24.7-23.8s24.7,10.4,24.7,23.8v7.1h-7.8v-7.1c0-9.9-4.7-16.8-16.9-16.8s-16.9,6.8-16.9,16.8v59c0,9.9,4.7,16.8,16.9,16.8s16.9-6.8,16.9-16.8v-6.5h7.8Z"/>
  </g>
  <g class="st3">
    <path class="st20" d="M1214.4,341.4c1.9,8.1,3.1,8.2,1.5,14.5l-.2.8c-2.9,11.5-10.9,19.3-23,19.3h-4.2v-7h4.2c10.1,0,16.2-8.7,16.2-18.8s-.3-4.5-.9-6.8l-21-78.1h8.1l10.7,41.1c5.6,21.6,7.6,30.4,7.6,30.4l1,4.6h0ZM1217.2,320.6c1.2-4.9,1-4.3,3.4-14.2l9.9-41.1h8.1l-17.9,70.9-3.5-15.6h0Z"/>
  </g>
  <g class="st21">
    <path class="st20" d="M1261,242v32.2c1.1-2.6,5.8-9.6,18.3-9.6s21.1,8.5,21.1,22.5v42.4c0,14.4-9,23.3-22.7,23.3h-24.4v-110.8h7.7ZM1261.2,345.7h14.9c10.7,0,16.6-5.6,16.6-16.3v-42.4c0-10.1-5-15.5-15.1-15.5s-16.5,5.3-16.5,15.1v59.1h0Z"/>
  </g>
  <g class="st2">
    <path class="st20" d="M1419.4,272.9c-1.5-.3-3.3-.5-6.1-.5-7.6,0-14.8,6.2-14.8,15.7v64.6h-7.8v-87.4h7.6v10.7c1.4-4.5,6.7-11.2,18-11.2s2,0,3,.2v7.9h.1Z"/>
  </g>
  <g class="st4">
    <path class="st20" d="M1337.4,304.1h23.9v-16.6c0-9.9-4.2-16.8-16.5-16.8s-16.5,6.8-16.5,16.8v43c0,9.9,4.2,16.8,16.5,16.8s16.5-6.8,16.5-16.8v-5.3h7.8v5.3c0,13.4-7.1,23.8-24.2,23.8s-24.2-10.4-24.2-23.8v-43c0-13.4,7.1-23.8,24.2-23.8s24.2,10.4,24.2,23.8v23.6h-31.6v-7h-.1Z"/>
  </g>
</svg>