<?xml version="1.0" encoding="UTF-8"?>
<svg id="Layer_1" xmlns="http://www.w3.org/2000/svg" version="1.1" xmlns:xlink="http://www.w3.org/1999/xlink" viewBox="0 0 1081 1081.6">
  <!-- Generator: Adobe Illustrator 30.2.1, SVG Export Plug-In . SVG Version: 2.1.1 Build 1)  -->
  <defs>
    <style>
      .st0 {
        clip-path: url(#clippath-4);
      }

      .st1 {
        fill: none;
      }

      .st2 {
        clip-path: url(#clippath-1);
      }

      .st3 {
        clip-path: url(#clippath-3);
      }

      .st4 {
        fill: #2e292a;
      }

      .st5 {
        clip-path: url(#clippath-2);
      }

      .st6 {
        clip-path: url(#clippath);
      }
    </style>
    <clipPath id="clippath">
      <polygon class="st1" points="0 1.2 1081.5 .8 1081.5 1080.8 -.5 1080.8 0 1.2"/>
    </clipPath>
    <clipPath id="clippath-1">
      <polygon class="st1" points="0 1.2 1081.5 .8 1081.5 1080.8 -.5 1080.8 0 1.2"/>
    </clipPath>
    <clipPath id="clippath-2">
      <polygon class="st1" points="0 1.2 1081.5 .8 1081.5 1080.8 -.5 1080.8 0 1.2"/>
    </clipPath>
    <clipPath id="clippath-3">
      <polygon class="st1" points="0 1.2 1081.5 .8 1081.5 1080.8 -.5 1080.8 0 1.2"/>
    </clipPath>
    <clipPath id="clippath-4">
      <polygon class="st1" points="0 1.2 1081.5 .8 1081.5 1080.8 -.5 1080.8 0 1.2"/>
    </clipPath>
  </defs>
  <g class="st6">
    <path class="st4" d="M580.6,427.2c0-16.3-13.1-29.5-29.2-29.5s-29.2,13.2-29.2,29.5,7.6,23,18.3,27.4l-12.2,29h46.2l-12.1-29c10.7-4.5,18.2-15.1,18.2-27.4Z"/>
  </g>
  <g class="st2">
    <path class="st4" d="M667.2,382.8l43.9,5.3c-19.6-8.3-48.5-22.8-76-53.3-1.7-.3-6.4-.8-10.3-1l-19.2-1.2,18.5-5.4c1.7-.5,3.5-1.1,4.8-1.7-8.5-18.8-26.5-75.8-33.3-97.6l-16.5,20.9,14.8-33c5.1-14.7,43-72.2,44.6-74.6l.9-1.3h1.6c5.6-.6,55.4-5,66.4,3.8,1.1.8,2.1,1.9,3,3.1-4.1-9.8-9.5-18.4-16.7-23.6-7.6-5.5-31.3-19.1-37.3-20.5-10.9-2.7-49,2.1-70,7.5l17.8,7.3-35.1-.8c-11.7,9.5-50.4,45.6-61.4,62.3-21.8,33.2-31.9,67.2-36.5,89.9-.6,2.9-1,7.8-1.4,13.5-.7,9.9-1.7,22.9-4.6,34l49.9-14.7-60.4,34.5c-11.3,9.1-56.1,29.4-81.5,38.3l64.6,16.3,102.2-17.8h.4l126.8,9.8Z"/>
  </g>
  <g class="st5">
    <polyline class="st4" points="537.9 984 316.9 733.9 335.3 516.8 392.9 494.2 392.9 473.8 456.2 464.1 456.2 478.7 433 486.5 443.4 505.4 532.4 552.7"/>
  </g>
  <g class="st3">
    <polygon class="st4" points="547.5 994.8 555.5 994.8 786 733.9 767.6 516.8 710 494.2 710 473.8 646.7 464.1 646.7 478.7 669.9 486.5 659.5 505.4 563.5 556.5 539.4 556.5 547.5 994.8"/>
  </g>
  <g class="st0">
    <path class="st4" d="M631.3,386.8l-90.7-7-72.4,12.6c-8.1,14.2-12.8,30.6-12.8,48.2,0,53.6,43,97.1,96,97.1s96-43.6,96-97.1-5.9-38.4-16.1-53.8M584.5,490.3h-66.2l13.8-32.7c-9.9-6.5-16.5-17.7-16.5-30.4,0-20,16.1-36.3,35.8-36.3s35.8,16.3,35.8,36.3-6.6,23.9-16.4,30.4l13.7,32.7Z"/>
  </g>
</svg>