<?xml version="1.0" encoding="UTF-8"?>
<svg id="Layer_1" xmlns="http://www.w3.org/2000/svg" version="1.1" viewBox="0 0 1081 1081.6">
  <!-- Generator: Adobe Illustrator 30.2.1, SVG Export Plug-In . SVG Version: 2.1.1 Build 1)  -->
  <defs>
    <style>
      .st0 {
        fill: #fff;
      }
    </style>
  </defs>
  <path class="st0" d="M569.6,421.4c0-16-13-29.1-29.1-29.1s-29.1,13-29.1,29.1,7.6,22.7,18.3,27l-12.1,28.5h45.9l-12.1-28.5c10.7-4.4,18.2-14.8,18.2-27h0Z"/>
  <path class="st0" d="M655.8,377.7l43.8,5.2c-19.5-8.1-48.3-22.5-75.6-52.4-1.7-.3-6.4-.8-10.2-1l-19.1-1.2,18.4-5.3c1.7-.5,3.5-1.1,4.7-1.6-8.5-18.5-26.4-74.6-33.1-96l-16.4,20.6,14.7-32.4c5.1-14.4,42.8-71,44.4-73.4l.9-1.3h1.6c5.6-.6,55.1-4.9,66.1,3.8,1.1.8,2.1,1.9,3,3-4.1-9.6-9.5-18.1-16.6-23.2-7.6-5.4-31.2-18.7-37.1-20.2-10.8-2.6-48.8,2.1-69.7,7.4l17.8,7.2-34.9-.8c-11.6,9.3-50.2,44.9-61.1,61.4-21.7,32.7-31.8,66.1-36.4,88.4-.6,2.8-1,7.7-1.4,13.3-.7,9.8-1.7,22.5-4.5,33.5l49.7-14.5-60.2,34c-11.3,8.9-55.8,28.9-81.1,37.7l64.3,16.1,101.8-17.5h.4l125.8,9.2h0Z"/>
  <polyline class="st0" points="527.1 969.3 306.9 723.3 325.3 509.6 382.7 487.4 382.7 467.3 445.6 457.7 445.6 472.1 422.5 479.7 432.9 498.4 521.6 544.9"/>
  <polygon class="st0" points="536.5 980 544.5 980 774.1 723.3 755.8 509.6 698.4 487.4 698.4 467.3 635.4 457.7 635.4 472.1 658.5 479.7 648.2 498.4 552.5 548.6 528.6 548.6 536.5 980"/>
  <path class="st0" d="M620,381.7l-90.3-6.9-72.1,12.4c-8,14-12.7,30.1-12.7,47.4,0,52.7,42.9,95.6,95.6,95.6s95.6-42.9,95.6-95.6-5.9-37.8-16.1-52.9M573.5,483.5h-66l13.7-32.1c-9.9-6.4-16.4-17.4-16.4-29.9,0-19.7,16-35.7,35.7-35.7s35.7,16,35.7,35.7-6.5,23.5-16.3,29.9l13.6,32.1Z"/>
</svg>