<?xml version="1.0" encoding="UTF-8"?>
<svg id="Layer_1" xmlns="http://www.w3.org/2000/svg" version="1.1" xmlns:xlink="http://www.w3.org/1999/xlink" viewBox="0 0 1922.3 710.4">
  <!-- Generator: Adobe Illustrator 30.2.1, SVG Export Plug-In . SVG Version: 2.1.1 Build 1)  -->
  <defs>
    <style>
      .st0 {
        clip-path: url(#clippath-6);
      }

      .st1 {
        clip-path: url(#clippath-7);
      }

      .st2 {
        clip-path: url(#clippath-4);
      }

      .st3 {
        fill: #ff8e26;
      }

      .st4 {
        clip-path: url(#clippath-9);
      }

      .st5 {
        clip-path: url(#clippath-10);
      }

      .st6 {
        fill: #804713;
      }

      .st7 {
        fill: #423b3d;
      }

      .st8 {
        clip-path: url(#clippath-11);
      }

      .st9 {
        fill: none;
      }

      .st10 {
        clip-path: url(#clippath-1);
      }

      .st11 {
        clip-path: url(#clippath-5);
      }

      .st12 {
        clip-path: url(#clippath-8);
      }

      .st13 {
        fill: #454545;
      }

      .st14 {
        clip-path: url(#clippath-3);
      }

      .st15 {
        clip-path: url(#clippath-12);
      }

      .st16 {
        fill: #2e292a;
      }

      .st17 {
        clip-path: url(#clippath-2);
      }

      .st18 {
        clip-path: url(#clippath);
      }
    </style>
    <clipPath id="clippath">
      <rect class="st9" x="4.6" y="1.2" width="1913" height="708"/>
    </clipPath>
    <clipPath id="clippath-1">
      <rect class="st9" x="4.6" y="1.2" width="1913" height="708"/>
    </clipPath>
    <clipPath id="clippath-2">
      <rect class="st9" x="4.6" y="1.2" width="1913" height="708"/>
    </clipPath>
    <clipPath id="clippath-3">
      <rect class="st9" x="4.6" y="1.2" width="1913" height="708"/>
    </clipPath>
    <clipPath id="clippath-4">
      <rect class="st9" x="4.6" y="1.2" width="1913" height="708"/>
    </clipPath>
    <clipPath id="clippath-5">
      <rect class="st9" x="4.6" y="1.2" width="1913" height="708"/>
    </clipPath>
    <clipPath id="clippath-6">
      <rect class="st9" x="4.6" y="1.2" width="1913" height="708"/>
    </clipPath>
    <clipPath id="clippath-7">
      <rect class="st9" x="4.6" y="1.2" width="1913" height="708"/>
    </clipPath>
    <clipPath id="clippath-8">
      <rect class="st9" x="4.6" y="1.2" width="1913" height="708"/>
    </clipPath>
    <clipPath id="clippath-9">
      <rect class="st9" x="4.6" y="1.2" width="1913" height="708"/>
    </clipPath>
    <clipPath id="clippath-10">
      <rect class="st9" x="4.6" y="1.2" width="1913" height="708"/>
    </clipPath>
    <clipPath id="clippath-11">
      <rect class="st9" x="4.6" y="1.2" width="1913" height="708"/>
    </clipPath>
    <clipPath id="clippath-12">
      <rect class="st9" x="4.6" y="1.2" width="1913" height="708"/>
    </clipPath>
  </defs>
  <g class="st18">
    <g>
      <path class="st13" d="M1125.7,279.7l21,2.5c-9.4-3.9-23.2-10.8-36.3-25.2-.8-.2-3.1-.4-4.9-.5l-9.2-.6,8.8-2.6c.8-.2,1.7-.5,2.3-.8-4.1-8.9-12.7-35.8-15.9-46.1l-7.9,9.9,7.1-15.6c2.4-6.9,20.6-34.1,21.3-35.3l.4-.6h.8c2.7-.3,26.5-2.4,31.8,1.8.5.4,1,.9,1.5,1.4-2-4.6-4.6-8.7-8-11.2-3.7-2.6-15-9-17.8-9.7-5.2-1.3-23.5,1-33.5,3.5l8.5,3.5-16.8-.4c-5.6,4.5-24.1,21.6-29.3,29.5-10.4,15.7-15.3,31.8-17.5,42.5-.3,1.4-.5,3.7-.7,6.4-.3,4.7-.8,10.8-2.2,16.1l23.9-7-28.9,16.3c-5.4,4.3-26.8,13.9-39,18.1l30.9,7.7,48.9-8.4h.2l60.5,4.8h0Z"/>
      <polyline class="st13" points="1063.8 564 958 445.7 966.8 343.1 994.4 332.4 994.4 322.7 1024.7 318.2 1024.7 325 1013.6 328.7 1018.6 337.7 1061.2 360.1"/>
      <polygon class="st7" points="1068.3 569.1 1072.2 569.1 1182.5 445.7 1173.7 343.1 1146.1 332.4 1146.1 322.7 1115.9 318.2 1115.9 325 1127 328.7 1122 337.7 1076 361.8 1064.5 361.8 1068.3 569.1"/>
      <path class="st3" d="M1108.5,281.6l-43.4-3.3-34.6,5.9c-3.9,6.7-6.1,14.5-6.1,22.8,0,25.3,20.6,45.9,45.9,45.9s45.9-20.6,45.9-45.9-2.9-18.1-7.7-25.4M1086.1,330.5h-31.7l6.6-15.4c-4.7-3.1-7.9-8.3-7.9-14.4,0-9.4,7.7-17.1,17.2-17.1s17.1,7.7,17.1,17.1-3.1,11.3-7.8,14.4l6.5,15.4h0Z"/>
      <polygon class="st6" points="1081.3 327.3 1072.8 307.2 1067.8 307.2 1059.2 327.3 1081.3 327.3"/>
      <path class="st6" d="M1070.3,286.7c-7.7,0-14,6.3-14,14s6.3,14,14,14,14-6.3,14-14c0-7.7-6.3-14-14-14"/>
    </g>
  </g>
  <g class="st10">
    <path class="st16" d="M258,404.6v11.5c0,23.6-13.5,42-43.7,42s-43.7-18.4-43.7-42v-104.4c0-23.6,13.5-42,43.7-42s43.7,18.4,43.7,42v12.6h-13.7v-12.6c0-17.6-8.2-29.7-29.9-29.7s-29.9,12.1-29.9,29.7v104.4c0,17.6,8.2,29.7,29.9,29.7s29.9-12.1,29.9-29.7v-11.5h13.7Z"/>
  </g>
  <g class="st17">
    <rect class="st16" x="295.1" y="259.6" width="13.7" height="195.8"/>
  </g>
  <g class="st14">
    <path class="st16" d="M432.4,416.2c0,23.6-12.4,42-42.6,42s-42.6-18.4-42.6-42v-76.1c0-23.6,12.4-42,42.6-42s42.6,18.4,42.6,42v76.1ZM418.7,340.1c0-17.6-7.1-29.7-28.8-29.7s-28.8,12.1-28.8,29.7v76.1c0,17.6,7.1,29.7,28.8,29.7s28.8-12.1,28.8-29.7v-76.1Z"/>
  </g>
  <g class="st2">
    <path class="st16" d="M536.3,363.4v-25.6c0-17.6-7.4-27.5-29.1-27.5s-28.8,9.9-28.8,27.5v7.7h-13.7v-7.7c0-23.6,12.4-39.8,42.6-39.8s42.6,16.2,42.6,39.8v117.6h-13.5v-17.6c-4.4,12.1-16.2,18.9-34.1,18.9-27.2,0-39.6-14-39.6-37.1v-7.4c0-17.6,9.3-29.9,32.4-36.8l29.9-8.8v13l-25.5,7.4c-17.6,5.2-23.3,13.2-23.3,25.3v7.7c0,15.1,7.4,25,26.9,25s33.2-14,33.2-29.1v-52.5h0Z"/>
  </g>
  <g class="st11">
    <path class="st16" d="M589.6,259.6h13.7v195.8h-13.7v-195.8h0ZM669.2,300.8l-36.8,74.7,39,79.9h-15.4l-39.6-79.4,37.6-75.3h15.2Z"/>
  </g>
  <g class="st0">
    <path class="st16" d="M724.5,369.5h42.3v-29.4c0-17.6-7.4-29.7-29.1-29.7s-29.1,12.1-29.1,29.7v76.1c0,17.6,7.4,29.7,29.1,29.7s29.1-12.1,29.1-29.7v-9.3h13.7v9.3c0,23.6-12.6,42-42.8,42s-42.8-18.4-42.8-42v-76.1c0-23.6,12.6-42,42.8-42s42.8,18.4,42.8,42v41.8h-55.9v-12.4h0Z"/>
  </g>
  <g class="st1">
    <path class="st16" d="M816.2,342c0-24.7,14-39.8,37.4-39.8s30.2,12.4,32.1,17v-59.6h13.7v195.8h-13.5v-16.2c-1.9,4.7-10.2,17-32.4,17s-37.4-15.1-37.4-39.8v-74.4h.1ZM885.7,341.2c0-17.3-13.2-26.6-29.1-26.6s-26.6,9.6-26.6,27.5v74.4c0,17.9,8.8,27.5,26.6,27.5s29.1-9.3,29.1-26.6v-76.2Z"/>
  </g>
  <g class="st12">
    <path class="st16" d="M1323.2,404.6v11.5c0,23.6-13.5,42-43.7,42s-43.7-18.4-43.7-42v-104.4c0-23.6,13.5-42,43.7-42s43.7,18.4,43.7,42v12.6h-13.7v-12.6c0-17.6-8.2-29.7-29.9-29.7s-29.9,12.1-29.9,29.7v104.4c0,17.6,8.2,29.7,29.9,29.7s29.9-12.1,29.9-29.7v-11.5h13.7Z"/>
  </g>
  <g class="st4">
    <path class="st16" d="M1393.7,435.5c3.3,14.3,5.4,14.6,2.6,25.7l-.3,1.4c-5.2,20.3-19.2,34.1-40.7,34.1h-7.4v-12.4h7.4c17.8,0,28.6-15.4,28.6-33.2s-.5-8-1.7-12.1l-37.1-138.2h14.3l19,72.8c9.9,38.2,13.5,53.8,13.5,53.8l1.8,8.1h0ZM1398.7,398.7c2.1-8.7,1.8-7.6,6.1-25.1l17.6-72.8h14.3l-31.7,125.5-6.3-27.6h0Z"/>
  </g>
  <g class="st5">
    <path class="st16" d="M1476.2,259.6v56.9c1.9-4.7,10.2-17,32.4-17s37.4,15.1,37.4,39.8v75c0,25.6-15.9,41.2-40.1,41.2h-43.1v-195.8h13.4,0ZM1476.5,443.1h26.4c19,0,29.4-9.9,29.4-28.8v-75c0-17.8-8.8-27.5-26.7-27.5s-29.1,9.3-29.1,26.6v104.7h0Z"/>
  </g>
  <g class="st8">
    <path class="st16" d="M1756.4,314.3c-2.8-.6-5.8-.8-10.7-.8-13.5,0-26.1,11-26.1,27.7v114.3h-13.7v-154.7h13.5v18.9c2.5-8,11.8-19.8,31.9-19.8s3.6,0,5.2.3v14.1h-.1Z"/>
  </g>
  <g class="st15">
    <path class="st16" d="M1611.4,369.5h42.3v-29.4c0-17.6-7.4-29.7-29.1-29.7s-29.1,12.1-29.1,29.7v76.1c0,17.6,7.4,29.7,29.1,29.7s29.1-12.1,29.1-29.7v-9.3h13.7v9.3c0,23.6-12.6,42-42.8,42s-42.8-18.4-42.8-42v-76.1c0-23.6,12.6-42,42.8-42s42.8,18.4,42.8,42v41.8h-55.9v-12.4h0Z"/>
  </g>
</svg>