<?xml version="1.0" encoding="UTF-8"?>
<svg id="Layer_1" xmlns="http://www.w3.org/2000/svg" version="1.1" viewBox="0 0 1922.3 710.4">
  <!-- Generator: Adobe Illustrator 30.2.1, SVG Export Plug-In . SVG Version: 2.1.1 Build 1)  -->
  <defs>
    <style>
      .st0 {
        fill: #fff;
      }
    </style>
  </defs>
  <g>
    <path class="st0" d="M1133.6,281.4l21.2,2.5c-9.5-3.9-23.5-10.9-36.7-25.5-.8-.2-3.1-.4-5-.5l-9.3-.6,8.9-2.6c.8-.2,1.7-.5,2.3-.8-4.1-9-12.8-36.2-16.1-46.6l-8,10,7.1-15.8c2.5-7,20.8-34.5,21.6-35.7l.4-.6h.8c2.7-.3,26.8-2.4,32.1,1.8.5.4,1,.9,1.5,1.5-2-4.7-4.6-8.8-8.1-11.3-3.7-2.6-15.1-9.1-18-9.8-5.2-1.3-23.7,1-33.8,3.6l8.6,3.5-16.9-.4c-5.6,4.5-24.4,21.8-29.6,29.8-10.5,15.9-15.4,32.1-17.7,42.9-.3,1.4-.5,3.7-.7,6.4-.4,4.7-.8,10.9-2.2,16.2l24.1-7-29.2,16.5c-5.5,4.3-27.1,14-39.4,18.3l31.2,7.8,49.4-8.5h.2l61.3,4.9h0Z"/>
    <polyline class="st0" points="1071.1 568.5 964.3 449.1 973.2 345.3 1001 334.6 1001 324.8 1031.6 320.2 1031.6 327.1 1020.4 330.9 1025.4 339.9 1068.4 362.5"/>
    <polygon class="st0" points="1075.7 573.7 1079.6 573.7 1191.1 449.1 1182.1 345.3 1154.3 334.6 1154.3 324.8 1123.7 320.2 1123.7 327.1 1134.9 330.9 1129.9 339.9 1083.5 364.3 1071.9 364.3 1075.7 573.7"/>
    <path class="st0" d="M1116.3,283.3l-43.8-3.3-35,6c-3.9,6.8-6.2,14.6-6.2,23,0,25.6,20.8,46.4,46.4,46.4s46.4-20.8,46.4-46.4-2.9-18.4-7.8-25.7M1093.7,332.7h-32l6.6-15.6c-4.8-3.1-8-8.4-8-14.5,0-9.6,7.8-17.3,17.3-17.3s17.3,7.8,17.3,17.3-3.2,11.4-7.9,14.5l6.7,15.6Z"/>
    <polygon class="st0" points="1088.8 329.5 1080.2 309.2 1075.2 309.2 1066.5 329.5 1088.8 329.5"/>
    <path class="st0" d="M1077.7,288.4c-7.8,0-14.1,6.3-14.1,14.1s6.3,14.1,14.1,14.1,14.1-6.3,14.1-14.1-6.4-14.1-14.1-14.1"/>
  </g>
  <path class="st0" d="M257.1,407.6v11.7c0,23.9-13.6,42.5-44.1,42.5s-44.1-18.6-44.1-42.5v-105.5c0-23.9,13.6-42.5,44.1-42.5s44.1,18.6,44.1,42.5v12.8h-13.9v-12.8c0-17.8-8.3-30-30.2-30s-30.2,12.2-30.2,30v105.4c0,17.8,8.3,30,30.2,30s30.2-12.2,30.2-30v-11.7h13.9Z"/>
  <rect class="st0" x="294.6" y="261" width="13.9" height="197.8"/>
  <path class="st0" d="M433.3,419.2c0,23.9-12.5,42.5-43,42.5s-43-18.6-43-42.5v-76.9c0-23.9,12.5-42.5,43-42.5s43,18.6,43,42.5v76.9ZM419.4,342.3c0-17.8-7.2-30-29.1-30s-29.1,12.2-29.1,30v76.9c0,17.8,7.2,30,29.1,30s29.1-12.2,29.1-30v-76.9Z"/>
  <path class="st0" d="M538.2,365.9v-25.8c0-17.8-7.5-27.8-29.4-27.8s-29.1,10-29.1,27.8v7.8h-13.9v-7.8c0-23.9,12.5-40.2,43-40.2s43,16.4,43,40.2v118.8h-13.6v-17.8c-4.4,12.2-16.4,19.2-34.4,19.2-27.5,0-40-14.2-40-37.5v-7.5c0-17.8,9.4-30.2,32.8-37.2l30.2-8.9v13.1l-25.7,7.5c-17.8,5.3-23.6,13.3-23.6,25.5v7.8c0,15.3,7.5,25.2,27.2,25.2s33.6-14.2,33.6-29.4v-53h-.1Z"/>
  <path class="st0" d="M592,261h13.9v197.8h-13.9v-197.8ZM672.5,302.7l-37.2,75.5,39.4,80.8h-15.5l-40-80.2,38-76h15.3Z"/>
  <path class="st0" d="M728.3,372h42.7v-29.7c0-17.8-7.5-30-29.4-30s-29.4,12.2-29.4,30v76.9c0,17.8,7.5,30,29.4,30s29.4-12.2,29.4-30v-9.4h13.9v9.4c0,23.9-12.8,42.5-43.3,42.5s-43.3-18.6-43.3-42.5v-76.9c0-23.9,12.8-42.5,43.3-42.5s43.3,18.6,43.3,42.5v42.2h-56.5v-12.5h-.1Z"/>
  <path class="st0" d="M820.9,344.3c0-25,14.1-40.2,37.7-40.2s30.5,12.5,32.5,17.2v-60.2h13.9v197.9h-13.6v-16.4c-1.9,4.7-10.3,17.2-32.7,17.2s-37.7-15.3-37.7-40.2v-75.3h-.1ZM891.2,343.5c0-17.5-13.3-26.9-29.4-26.9s-26.9,9.7-26.9,27.8v75.2c0,18,8.9,27.8,26.9,27.8s29.4-9.4,29.4-26.9v-77h0Z"/>
  <path class="st0" d="M1333.2,407.6v11.7c0,23.9-13.6,42.5-44.1,42.5s-44.1-18.6-44.1-42.5v-105.5c0-23.9,13.6-42.5,44.1-42.5s44.1,18.6,44.1,42.5v12.8h-13.9v-12.8c0-17.8-8.3-30-30.2-30s-30.2,12.2-30.2,30v105.4c0,17.8,8.3,30,30.2,30s30.2-12.2,30.2-30v-11.7h13.9Z"/>
  <path class="st0" d="M1404.4,438.7c3.3,14.4,5.4,14.8,2.6,26l-.4,1.4c-5.3,20.5-19.4,34.4-41.1,34.4h-7.5v-12.5h7.5c18,0,28.9-15.5,28.9-33.6s-.6-8-1.7-12.2l-37.5-139.6h14.4l19.1,73.5c10,38.6,13.6,54.4,13.6,54.4l2.1,8.2h0ZM1409.5,401.6c2.1-8.8,1.8-7.7,6.1-25.4l17.8-73.5h14.4l-32,126.8-6.3-27.9Z"/>
  <path class="st0" d="M1487.7,261v57.4c1.9-4.7,10.3-17.2,32.7-17.2s37.7,15.3,37.7,40.2v75.8c0,25.8-16.1,41.6-40.5,41.6h-43.6v-197.9h13.7ZM1488,446.4h26.6c19.1,0,29.7-10,29.7-29.1v-75.8c0-18-8.9-27.8-26.9-27.8s-29.4,9.4-29.4,26.9v105.8h0Z"/>
  <path class="st0" d="M1770.8,316.3c-2.8-.6-5.8-.8-10.8-.8-13.6,0-26.4,11.1-26.4,28v115.4h-13.9v-156.2h13.6v19.2c2.5-8.1,11.9-20,32.2-20s3.6,0,5.3.3v14.1h0Z"/>
  <path class="st0" d="M1624.3,372h42.7v-29.7c0-17.8-7.5-30-29.4-30s-29.4,12.2-29.4,30v76.9c0,17.8,7.5,30,29.4,30s29.4-12.2,29.4-30v-9.4h13.9v9.4c0,23.9-12.8,42.5-43.3,42.5s-43.3-18.6-43.3-42.5v-76.9c0-23.9,12.8-42.5,43.3-42.5s43.3,18.6,43.3,42.5v42.2h-56.5v-12.5h0Z"/>
</svg>