<?xml version="1.0" encoding="UTF-8"?>
<svg id="Layer_1" xmlns="http://www.w3.org/2000/svg" version="1.1" xmlns:xlink="http://www.w3.org/1999/xlink" viewBox="0 0 1922.3 710.4">
  <!-- Generator: Adobe Illustrator 30.2.1, SVG Export Plug-In . SVG Version: 2.1.1 Build 1)  -->
  <defs>
    <style>
      .st0 {
        clip-path: url(#clippath-6);
      }

      .st1 {
        clip-path: url(#clippath-7);
      }

      .st2 {
        clip-path: url(#clippath-4);
      }

      .st3 {
        clip-path: url(#clippath-9);
      }

      .st4 {
        clip-path: url(#clippath-10);
      }

      .st5 {
        clip-path: url(#clippath-11);
      }

      .st6 {
        fill: none;
      }

      .st7 {
        clip-path: url(#clippath-1);
      }

      .st8 {
        clip-path: url(#clippath-5);
      }

      .st9 {
        clip-path: url(#clippath-8);
      }

      .st10 {
        clip-path: url(#clippath-3);
      }

      .st11 {
        clip-path: url(#clippath-12);
      }

      .st12 {
        fill: #2e292a;
      }

      .st13 {
        clip-path: url(#clippath-2);
      }

      .st14 {
        clip-path: url(#clippath);
      }
    </style>
    <clipPath id="clippath">
      <rect class="st6" x="-.6" y="-.8" width="1923.4" height="711.9"/>
    </clipPath>
    <clipPath id="clippath-1">
      <rect class="st6" x="-.6" y="-.8" width="1923.4" height="711.9"/>
    </clipPath>
    <clipPath id="clippath-2">
      <rect class="st6" x="-.6" y="-.8" width="1923.4" height="711.9"/>
    </clipPath>
    <clipPath id="clippath-3">
      <rect class="st6" x="-.6" y="-.8" width="1923.4" height="711.9"/>
    </clipPath>
    <clipPath id="clippath-4">
      <rect class="st6" x="-.6" y="-.8" width="1923.4" height="711.9"/>
    </clipPath>
    <clipPath id="clippath-5">
      <rect class="st6" x="-.6" y="-.8" width="1923.4" height="711.9"/>
    </clipPath>
    <clipPath id="clippath-6">
      <rect class="st6" x="-.6" y="-.8" width="1923.4" height="711.9"/>
    </clipPath>
    <clipPath id="clippath-7">
      <rect class="st6" x="-.6" y="-.8" width="1923.4" height="711.9"/>
    </clipPath>
    <clipPath id="clippath-8">
      <rect class="st6" x="-.6" y="-.8" width="1923.4" height="711.9"/>
    </clipPath>
    <clipPath id="clippath-9">
      <rect class="st6" x="-.6" y="-.8" width="1923.4" height="711.9"/>
    </clipPath>
    <clipPath id="clippath-10">
      <rect class="st6" x="-.6" y="-.8" width="1923.4" height="711.9"/>
    </clipPath>
    <clipPath id="clippath-11">
      <rect class="st6" x="-.6" y="-.8" width="1923.4" height="711.9"/>
    </clipPath>
    <clipPath id="clippath-12">
      <rect class="st6" x="-.6" y="-.8" width="1923.4" height="711.9"/>
    </clipPath>
  </defs>
  <g class="st14">
    <g>
      <path class="st12" d="M1126.6,279.2l21.1,2.5c-9.4-3.9-23.3-10.8-36.5-25.3-.8-.2-3.1-.4-4.9-.5l-9.2-.6,8.9-2.6c.8-.2,1.7-.5,2.3-.8-4.1-9-12.8-36-16-46.4l-7.9,9.9,7.1-15.7c2.4-7,20.7-34.3,21.4-35.5l.4-.6h.8c2.7-.3,26.6-2.4,31.9,1.8.5.4,1,.9,1.5,1.5-2-4.7-4.6-8.8-8-11.2-3.7-2.6-15.1-9.1-17.9-9.8-5.2-1.3-23.6,1-33.7,3.6l8.6,3.5-16.9-.4c-5.6,4.5-24.2,21.7-29.5,29.6-10.5,15.8-15.3,32-17.6,42.7-.3,1.4-.5,3.7-.7,6.4-.4,4.7-.8,10.9-2.2,16.2l24-7-29.1,16.4c-5.4,4.3-27,14-39.2,18.2l31.1,7.8,49.2-8.4h.2l60.8,4.7h0Z"/>
      <polyline class="st12" points="1064.4 565 958 446.2 966.9 343 994.6 332.2 994.6 322.5 1025 318 1025 324.9 1013.9 328.5 1018.9 337.5 1061.7 360"/>
      <polygon class="st12" points="1068.9 570.2 1072.8 570.2 1183.7 446.2 1174.9 343 1147.1 332.2 1147.1 322.5 1116.7 318 1116.7 324.9 1127.9 328.5 1122.9 337.5 1076.6 361.9 1065.1 361.9 1068.9 570.2"/>
      <path class="st12" d="M1109.3,281.1l-43.6-3.3-34.8,6c-3.9,6.8-6.1,14.6-6.1,22.9,0,25.5,20.7,46.2,46.2,46.2s46.2-20.7,46.2-46.2c-.2-9.5-3-18.3-7.9-25.6M1086.8,330.4h-31.9l6.6-15.5c-4.8-3.1-7.9-8.4-7.9-14.5,0-9.5,7.7-17.2,17.2-17.2s17.2,7.7,17.2,17.2-3.2,11.4-7.9,14.4l6.7,15.6h0Z"/>
      <polygon class="st12" points="1082 327.1 1073.4 307 1068.4 307 1059.8 327.1 1082 327.1"/>
      <path class="st12" d="M1070.9,286.4c-7.7,0-14,6.3-14,14s6.3,14,14,14,14-6.3,14-14-6.3-14-14-14"/>
    </g>
  </g>
  <g class="st7">
    <path class="st12" d="M254.2,404.9v11.6c0,23.8-13.5,42.3-43.9,42.3s-43.9-18.5-43.9-42.3v-104.9c0-23.8,13.5-42.3,43.9-42.3s43.9,18.5,43.9,42.3v12.7h-13.8v-12.7c0-17.7-8.3-29.8-30.1-29.8s-30.1,12.2-30.1,29.8v104.9c0,17.7,8.3,29.8,30.1,29.8s30.1-12.2,30.1-29.8v-11.6h13.8Z"/>
  </g>
  <g class="st13">
    <rect class="st12" x="291.5" y="259" width="13.8" height="196.9"/>
  </g>
  <g class="st10">
    <path class="st12" d="M429.6,416.5c0,23.8-12.4,42.3-42.8,42.3s-42.8-18.5-42.8-42.3v-76.5c0-23.8,12.4-42.3,42.8-42.3s42.8,18.5,42.8,42.3v76.5ZM415.8,340c0-17.7-7.2-29.8-29-29.8s-29,12.2-29,29.8v76.5c0,17.7,7.2,29.8,29,29.8s29-12.2,29-29.8v-76.5Z"/>
  </g>
  <g class="st2">
    <path class="st12" d="M534,363.5v-25.7c0-17.7-7.5-27.6-29.3-27.6s-29,9.9-29,27.6v7.7h-13.8v-7.7c0-23.8,12.4-40.1,42.8-40.1s42.8,16.3,42.8,40.1v118.2h-13.5v-17.7c-4.4,12.2-16.3,19.1-34.2,19.1-27.3,0-39.8-14.1-39.8-37.3v-7.5c0-17.7,9.4-30.1,32.6-37l30-8.9v13.1l-25.6,7.4c-17.7,5.2-23.5,13.3-23.5,25.4v7.7c0,15.2,7.5,25.1,27.1,25.1s33.4-14.1,33.4-29.3v-52.6h0Z"/>
  </g>
  <g class="st8">
    <path class="st12" d="M587.5,259h13.8v196.9h-13.8v-196.9ZM667.6,300.5l-37,75.1,39.2,80.4h-15.5l-39.8-79.8,37.8-75.7h15.3Z"/>
  </g>
  <g class="st0">
    <path class="st12" d="M723.2,369.5h42.5v-29.6c0-17.7-7.5-29.8-29.3-29.8s-29.3,12.2-29.3,29.8v76.5c0,17.7,7.5,29.8,29.3,29.8s29.3-12.2,29.3-29.8v-9.4h13.8v9.4c0,23.8-12.7,42.3-43.1,42.3s-43.1-18.5-43.1-42.3v-76.5c0-23.8,12.7-42.3,43.1-42.3s43.1,18.5,43.1,42.3v42h-56.2v-12.4h0Z"/>
  </g>
  <g class="st1">
    <path class="st12" d="M815.4,342c0-24.9,14.1-40.1,37.6-40.1s30.4,12.4,32.3,17.1v-59.9h13.8v196.9h-13.5v-16.3c-1.9,4.7-10.2,17.1-32.6,17.1s-37.6-15.2-37.6-40.1v-74.7h0ZM885.2,341c0-17.4-13.3-26.8-29.3-26.8s-26.8,9.7-26.8,27.6v74.8c0,17.9,8.8,27.6,26.8,27.6s29.3-9.4,29.3-26.8v-76.4h0Z"/>
  </g>
  <g class="st9">
    <path class="st12" d="M1325.2,404.9v11.6c0,23.8-13.5,42.3-43.9,42.3s-43.9-18.5-43.9-42.3v-104.9c0-23.8,13.5-42.3,43.9-42.3s43.9,18.5,43.9,42.3v12.7h-13.8v-12.7c0-17.7-8.3-29.8-30.1-29.8s-30.1,12.2-30.1,29.8v104.9c0,17.7,8.3,29.8,30.1,29.8s30.1-12.2,30.1-29.8v-11.6h13.8Z"/>
  </g>
  <g class="st3">
    <path class="st12" d="M1396.1,436c3.3,14.3,5.4,14.7,2.6,25.9l-.3,1.4c-5.2,20.4-19.3,34.2-40.9,34.2h-7.5v-12.4h7.5c17.9,0,28.7-15.5,28.7-33.4s-.6-8-1.7-12.2l-37.3-138.9h14.4l19.1,73.2c9.9,38.4,13.5,54.1,13.5,54.1l1.9,8.1h0ZM1401.1,399c2.1-8.7,1.8-7.6,6.1-25.3l17.7-73.2h14.4l-31.9,126.2-6.3-27.7h0Z"/>
  </g>
  <g class="st4">
    <path class="st12" d="M1479,259v57.2c1.9-4.7,10.2-17.1,32.6-17.1s37.6,15.2,37.6,40.1v75.4c0,25.7-16,41.4-40.3,41.4h-43.4v-197h13.5ZM1479.3,443.5h26.5c19.1,0,29.6-9.9,29.6-29v-75.4c0-17.9-8.8-27.6-26.8-27.6s-29.3,9.4-29.3,26.8v105.2h0Z"/>
  </g>
  <g class="st5">
    <path class="st12" d="M1760.7,314c-2.8-.6-5.8-.8-10.8-.8-13.5,0-26.2,11.1-26.2,27.9v114.9h-13.8v-155.5h13.5v19.1c2.5-8,11.9-19.9,32-19.9s3.6,0,5.2.3v14h.1Z"/>
  </g>
  <g class="st11">
    <path class="st12" d="M1614.9,369.5h42.5v-29.6c0-17.7-7.5-29.8-29.3-29.8s-29.3,12.2-29.3,29.8v76.5c0,17.7,7.5,29.8,29.3,29.8s29.3-12.2,29.3-29.8v-9.4h13.8v9.4c0,23.8-12.7,42.3-43.1,42.3s-43.1-18.5-43.1-42.3v-76.5c0-23.8,12.7-42.3,43.1-42.3s43.1,18.5,43.1,42.3v42h-56.2v-12.4h-.1Z"/>
  </g>
</svg>