<?xml version="1.0" encoding="UTF-8"?>
<svg id="Layer_1" xmlns="http://www.w3.org/2000/svg" version="1.1" viewBox="0 0 1920 1080">
  <!-- Generator: Adobe Illustrator 30.2.1, SVG Export Plug-In . SVG Version: 2.1.1 Build 1)  -->
  <defs>
    <style>
      .st0 {
        fill: #ff8e26;
      }

      .st1 {
        fill: #fff;
      }

      .st2 {
        fill: #804713;
      }

      .st3 {
        fill: #423b3d;
      }

      .st4 {
        fill: #454545;
      }
    </style>
  </defs>
  <path class="st4" d="M1119.1,398.6l38,4.5c-17-7.1-41.9-19.5-65.6-45.5-1.5-.3-5.5-.7-8.9-.9l-16.6-1,16-4.6c1.5-.4,3-1,4.1-1.4-7.4-16.1-22.9-64.7-28.8-83.3l-14.2,17.9,12.8-28.2c4.4-12.5,37.1-61.6,38.5-63.7l.8-1.1h1.4c4.9-.5,47.9-4.3,57.4,3.3.9.7,1.8,1.6,2.6,2.6-3.5-8.4-8.2-15.8-14.4-20.2-6.6-4.7-27-16.3-32.2-17.5-9.4-2.3-42.4,1.8-60.5,6.4l15.4,6.3-30.3-.7c-10.1,8.1-43.5,39-53,53.2-18.9,28.4-27.6,57.4-31.6,76.8-.5,2.5-.8,6.6-1.2,11.5-.6,8.5-1.5,19.6-4,29l43.1-12.6-52.2,29.5c-9.8,7.7-48.5,25.1-70.4,32.7l55.8,14,88.3-15.2h.4l109.3,8.2h0Z"/>
  <polyline class="st4" points="1007.3 912 816.3 698.4 832.2 513 882 493.7 882 476.3 936.7 468 936.7 480.5 916.6 487.1 925.6 503.3 1002.6 543.7"/>
  <polygon class="st3" points="1015.6 921.2 1022.5 921.2 1221.8 698.4 1205.9 513 1156 493.7 1156 476.3 1101.4 468 1101.4 480.5 1121.4 487.1 1112.4 503.3 1029.4 546.9 1008.6 546.9 1015.6 921.2"/>
  <path class="st0" d="M1019,411.2c-13.9,0-25.2,11.3-25.2,25.2s4.3,16,10.8,20.6l6.2-14.5h16.6l6.1,14.5c6.5-4.6,10.7-12.1,10.7-20.6,0-13.8-11.3-25.2-25.2-25.2"/>
  <path class="st0" d="M1088,402l-78.4-6-62.6,10.8c-7,12.1-11,26.2-11,41.1,0,45.7,37.2,82.9,82.9,82.9s82.9-37.2,82.9-82.9c.2-17-5-32.8-13.8-45.9M1047.6,490.4h-57.2l11.9-27.9c-8.5-5.5-14.2-15.1-14.2-26,0-17.1,13.9-31,31-31s31,13.9,31,31-5.7,20.4-14.2,26l11.7,27.9h0Z"/>
  <polygon class="st2" points="1039 484.6 1023.6 448.3 1014.6 448.3 999.1 484.6 1039 484.6"/>
  <path class="st2" d="M1019,411.2c-13.9,0-25.2,11.3-25.2,25.2s11.3,25.2,25.2,25.2,25.2-11.3,25.2-25.2-11.3-25.2-25.2-25.2"/>
  <path class="st1" d="M559.9,315.4v6.5c0,13.4-7.6,23.8-24.7,23.8s-24.7-10.4-24.7-23.8v-59c0-13.4,7.6-23.8,24.7-23.8s24.7,10.4,24.7,23.8v7.1h-7.8v-7.1c0-9.9-4.7-16.8-16.9-16.8s-16.9,6.8-16.9,16.8v59c0,9.9,4.7,16.8,16.9,16.8s16.9-6.8,16.9-16.8v-6.5h7.8Z"/>
  <rect class="st1" x="580.8" y="233.4" width="7.8" height="110.7"/>
  <path class="st1" d="M658.5,321.9c0,13.4-7,23.8-24.1,23.8s-24.1-10.4-24.1-23.8v-43c0-13.4,7-23.8,24.1-23.8s24.1,10.4,24.1,23.8v43ZM650.7,278.9c0-9.9-4-16.8-16.3-16.8s-16.3,6.8-16.3,16.8v43c0,9.9,4,16.8,16.3,16.8s16.3-6.8,16.3-16.8v-43Z"/>
  <path class="st1" d="M717.1,292.1v-14.5c0-9.9-4.2-15.5-16.5-15.5s-16.3,5.6-16.3,15.5v4.4h-7.8v-4.4c0-13.4,7-22.5,24.1-22.5s24.1,9.2,24.1,22.5v66.5h-7.6v-9.9c-2.5,6.8-9.2,10.7-19.3,10.7-15.4,0-22.4-7.9-22.4-21v-4.2c0-9.9,5.3-16.9,18.3-20.8l16.9-5v7.3l-14.4,4.2c-9.9,3-13.2,7.5-13.2,14.3v4.4c0,8.5,4.2,14.1,15.2,14.1s18.8-7.9,18.8-16.5v-29.6h.1Z"/>
  <path class="st1" d="M747.3,233.4h7.8v110.7h-7.8v-110.7h0ZM792.3,256.7l-20.8,42.2,22,45.2h-8.7l-22.4-44.9,21.3-42.5h8.6Z"/>
  <path class="st1" d="M823.5,295.5h23.9v-16.6c0-9.9-4.2-16.8-16.5-16.8s-16.5,6.8-16.5,16.8v43c0,9.9,4.2,16.8,16.5,16.8s16.5-6.8,16.5-16.8v-5.3h7.8v5.3c0,13.4-7.1,23.8-24.2,23.8s-24.2-10.4-24.2-23.8v-43c0-13.4,7.1-23.8,24.2-23.8s24.2,10.4,24.2,23.8v23.6h-31.6v-7h-.1Z"/>
  <path class="st1" d="M875.4,280c0-14,7.9-22.5,21.1-22.5s17.1,7,18.2,9.6v-33.7h7.8v110.7h-7.6v-9.2c-1.1,2.6-5.8,9.6-18.3,9.6s-21.1-8.5-21.1-22.5v-42h-.1ZM914.7,279.5c0-9.8-7.5-15.1-16.5-15.1s-15.1,5.4-15.1,15.5v42.1c0,10.1,5,15.5,15.1,15.5s16.5-5.3,16.5-15.1v-42.9Z"/>
  <path class="st1" d="M1162,315.4v6.5c0,13.4-7.6,23.8-24.7,23.8s-24.7-10.4-24.7-23.8v-59c0-13.4,7.6-23.8,24.7-23.8s24.7,10.4,24.7,23.8v7.1h-7.8v-7.1c0-9.9-4.7-16.8-16.9-16.8s-16.9,6.8-16.9,16.8v59c0,9.9,4.7,16.8,16.9,16.8s16.9-6.8,16.9-16.8v-6.5h7.8Z"/>
  <path class="st1" d="M1201.9,332.8c1.9,8.1,3,8.2,1.5,14.5l-.2.8c-3,11.5-10.9,19.2-23,19.2h-4.2v-7h4.2c10.1,0,16.1-8.7,16.1-18.8s-.3-4.5-.9-6.8l-21-78.1h8.1l10.7,41.1c5.6,21.6,7.6,30.4,7.6,30.4l1.1,4.7h0ZM1204.7,312c1.2-4.9,1-4.3,3.4-14.2l9.9-41.1h8.1l-17.9,70.9-3.5-15.6h0Z"/>
  <path class="st1" d="M1248.5,233.4v32.1c1.1-2.6,5.8-9.6,18.3-9.6s21.1,8.5,21.1,22.5v42.4c0,14.4-9,23.3-22.7,23.3h-24.4v-110.7h7.7ZM1248.7,337.1h14.9c10.7,0,16.6-5.6,16.6-16.3v-42.4c0-10.1-5-15.5-15.1-15.5s-16.5,5.3-16.5,15.1v59.1h0Z"/>
  <path class="st1" d="M1406.9,264.3c-1.5-.3-3.3-.5-6.1-.5-7.6,0-14.8,6.2-14.8,15.7v64.6h-7.8v-87.4h7.6v10.7c1.4-4.5,6.7-11.2,18-11.2s2,0,3,.2v7.9h.1Z"/>
  <path class="st1" d="M1324.9,295.5h23.9v-16.6c0-9.9-4.2-16.8-16.5-16.8s-16.5,6.8-16.5,16.8v43c0,9.9,4.2,16.8,16.5,16.8s16.5-6.8,16.5-16.8v-5.3h7.8v5.3c0,13.4-7.1,23.8-24.2,23.8s-24.2-10.4-24.2-23.8v-43c0-13.4,7.1-23.8,24.2-23.8s24.2,10.4,24.2,23.8v23.6h-31.6v-7h-.1Z"/>
</svg>