<?xml version="1.0" encoding="UTF-8"?>
<svg id="Layer_1" xmlns="http://www.w3.org/2000/svg" version="1.1" viewBox="0 0 1920 1080">
  <!-- Generator: Adobe Illustrator 30.2.1, SVG Export Plug-In . SVG Version: 2.1.1 Build 1)  -->
  <defs>
    <style>
      .st0 {
        fill: #fff;
      }
    </style>
  </defs>
  <path class="st0" d="M1122.9,397.7l37.9,4.5c-16.9-7-41.9-19.5-65.5-45.4-1.5-.3-5.5-.7-8.9-.9l-16.5-1,15.9-4.6c1.5-.4,3-1,4.1-1.4-7.4-16-22.9-64.6-28.7-83.1l-14.2,17.8,12.8-28.1c4.4-12.5,37-61.5,38.4-63.6l.8-1.1h1.4c4.9-.5,47.7-4.3,57.3,3.3.9.7,1.8,1.6,2.6,2.6-3.5-8.3-8.2-15.7-14.4-20.1-6.6-4.7-27-16.2-32.1-17.5-9.4-2.3-42.3,1.8-60.3,6.4l15.4,6.2-30.2-.7c-10.1,8.1-43.4,38.9-52.9,53.1-18.8,28.3-27.5,57.3-31.5,76.6-.5,2.4-.8,6.6-1.2,11.5-.6,8.5-1.5,19.5-3.9,29l43-12.5-52.1,29.4c-9.8,7.7-48.4,25-70.2,32.6l55.7,13.9,88.1-15.1h.4l108.8,8.2h0Z"/>
  <polyline class="st0" points="1011.4 909.9 820.8 696.8 836.7 511.8 886.4 492.6 886.4 475.2 940.9 466.9 940.9 479.4 920.9 486 929.9 502.1 1006.7 542.4"/>
  <polygon class="st0" points="1019.6 919.1 1026.5 919.1 1225.4 696.8 1209.5 511.8 1159.8 492.6 1159.8 475.2 1105.2 466.9 1105.2 479.4 1125.3 486 1116.3 502.1 1033.4 545.6 1012.7 545.6 1019.6 919.1"/>
  <path class="st0" d="M1023.1,410.3c-13.9,0-25.2,11.3-25.2,25.2s4.3,16,10.8,20.6l6.2-14.5h16.6l6.1,14.4c6.4-4.6,10.7-12,10.7-20.5,0-13.9-11.3-25.2-25.2-25.2"/>
  <path class="st0" d="M1091.9,401.1l-78.2-5.9-62.4,10.7c-7,12.1-11,26.1-11,41,0,45.6,37.1,82.7,82.7,82.7s82.7-37.1,82.7-82.7c0-16.9-5-32.7-13.8-45.8M1051.6,489.2h-57.1l11.9-27.8c-8.5-5.5-14.2-15-14.2-25.9,0-17,13.9-30.9,30.9-30.9s30.9,13.9,30.9,30.9-5.7,20.4-14.1,25.9l11.7,27.8Z"/>
  <polygon class="st0" points="1043 483.5 1027.6 447.3 1018.6 447.3 1003.2 483.5 1043 483.5"/>
  <path class="st0" d="M1023.1,410.3c-13.9,0-25.2,11.3-25.2,25.2s11.3,25.2,25.2,25.2,25.2-11.3,25.2-25.2c0-13.9-11.3-25.2-25.2-25.2"/>
  <path class="st0" d="M565,314.6v6.5c0,13.3-7.6,23.7-24.6,23.7s-24.6-10.4-24.6-23.7v-58.9c0-13.3,7.6-23.7,24.6-23.7s24.6,10.4,24.6,23.7v7.1h-7.8v-7.1c0-9.9-4.6-16.7-16.9-16.7s-16.9,6.8-16.9,16.7v58.9c0,9.9,4.6,16.7,16.9,16.7s16.9-6.8,16.9-16.7v-6.5h7.8Z"/>
  <rect class="st0" x="585.9" y="232.8" width="7.8" height="110.5"/>
  <path class="st0" d="M663.4,321.1c0,13.3-7,23.7-24,23.7s-24-10.4-24-23.7v-42.9c0-13.3,7-23.7,24-23.7s24,10.4,24,23.7v42.9ZM655.6,278.2c0-9.9-4-16.7-16.3-16.7s-16.3,6.8-16.3,16.7v42.9c0,9.9,4,16.7,16.3,16.7s16.3-6.8,16.3-16.7v-42.9Z"/>
  <path class="st0" d="M721.9,291.4v-14.4c0-9.9-4.2-15.5-16.4-15.5s-16.3,5.6-16.3,15.5v4.3h-7.7v-4.3c0-13.3,7-22.5,24-22.5s24,9.1,24,22.5v66.3h-7.6v-9.9c-2.5,6.8-9.1,10.7-19.2,10.7-15.3,0-22.3-7.9-22.3-20.9v-4.2c0-9.9,5.3-16.9,18.3-20.8l16.8-5v7.3l-14.4,4.2c-9.9,2.9-13.2,7.4-13.2,14.2v4.3c0,8.5,4.2,14.1,15.2,14.1s18.8-7.9,18.8-16.4v-29.5h0Z"/>
  <path class="st0" d="M752,232.8h7.8v110.5h-7.8v-110.5h0ZM796.9,256.1l-20.8,42.1,22,45.1h-8.7l-22.3-44.8,21.2-42.5h8.6Z"/>
  <path class="st0" d="M828.1,294.8h23.8v-16.6c0-9.9-4.2-16.7-16.4-16.7s-16.4,6.8-16.4,16.7v43c0,9.9,4.2,16.7,16.4,16.7s16.4-6.8,16.4-16.7v-5.3h7.8v5.3c0,13.3-7.1,23.7-24.2,23.7s-24.2-10.4-24.2-23.7v-42.9c0-13.3,7.1-23.7,24.2-23.7s24.2,10.4,24.2,23.7v23.5h-31.5v-7h0Z"/>
  <path class="st0" d="M879.8,279.3c0-13.9,7.9-22.5,21.1-22.5s17,7,18.1,9.6v-33.6h7.8v110.4h-7.6v-9.1c-1.1,2.6-5.7,9.6-18.3,9.6s-21.1-8.5-21.1-22.5v-41.9h0ZM919,278.9c0-9.8-7.4-15-16.4-15s-15,5.4-15,15.5v42c0,10.1,5,15.5,15,15.5s16.4-5.3,16.4-15v-43Z"/>
  <path class="st0" d="M1165.8,314.6v6.5c0,13.3-7.6,23.7-24.6,23.7s-24.6-10.4-24.6-23.7v-58.9c0-13.3,7.6-23.7,24.6-23.7s24.6,10.4,24.6,23.7v7.1h-7.8v-7.1c0-9.9-4.6-16.7-16.9-16.7s-16.9,6.8-16.9,16.7v58.9c0,9.9,4.6,16.7,16.9,16.7s16.9-6.8,16.9-16.7v-6.5h7.8Z"/>
  <path class="st0" d="M1205.5,332c1.9,8,3.1,8.2,1.5,14.5l-.2.8c-2.9,11.5-10.8,19.2-22.9,19.2h-4.2v-7h4.2c10.1,0,16.1-8.7,16.1-18.8s-.3-4.5-.9-6.8l-20.9-77.9h8.1l10.7,41.1c5.6,21.5,7.6,30.4,7.6,30.4l.9,4.5h0ZM1208.3,311.3c1.2-4.9,1-4.3,3.4-14.2l9.9-41.1h8.1l-17.9,70.8-3.5-15.5Z"/>
  <path class="st0" d="M1252,232.8v32.1c1.1-2.6,5.7-9.6,18.3-9.6s21.1,8.5,21.1,22.5v42.3c0,14.4-9,23.2-22.6,23.2h-24.3v-110.5h7.5ZM1252.2,336.3h14.9c10.7,0,16.6-5.6,16.6-16.3v-42.3c0-10.1-5-15.5-15-15.5s-16.4,5.3-16.4,15v59.1h0Z"/>
  <path class="st0" d="M1410.1,263.7c-1.6-.3-3.2-.5-6-.5-7.6,0-14.7,6.2-14.7,15.6v64.4h-7.8v-87.2h7.6v10.7c1.4-4.5,6.7-11.1,18-11.1s2,0,2.9.1v8h0Z"/>
  <path class="st0" d="M1328.3,294.8h23.8v-16.6c0-9.9-4.2-16.7-16.4-16.7s-16.4,6.8-16.4,16.7v43c0,9.9,4.2,16.7,16.4,16.7s16.4-6.8,16.4-16.7v-5.3h7.8v5.3c0,13.3-7.1,23.7-24.2,23.7s-24.2-10.4-24.2-23.7v-42.9c0-13.3,7.1-23.7,24.2-23.7s24.2,10.4,24.2,23.7v23.5h-31.5v-7h-.1Z"/>
</svg>