<?xml version="1.0" encoding="UTF-8"?>
<svg id="Layer_1" xmlns="http://www.w3.org/2000/svg" version="1.1" xmlns:xlink="http://www.w3.org/1999/xlink" viewBox="0 0 1081 1081.6">
  <!-- Generator: Adobe Illustrator 30.2.1, SVG Export Plug-In . SVG Version: 2.1.1 Build 1)  -->
  <defs>
    <style>
      .st0 {
        clip-path: url(#clippath-4);
      }

      .st1 {
        fill: #ff8e26;
      }

      .st2 {
        fill: #804713;
      }

      .st3 {
        fill: #423b3d;
      }

      .st4 {
        fill: none;
      }

      .st5 {
        clip-path: url(#clippath-1);
      }

      .st6 {
        fill: #454545;
      }

      .st7 {
        clip-path: url(#clippath-3);
      }

      .st8 {
        clip-path: url(#clippath-2);
      }

      .st9 {
        clip-path: url(#clippath);
      }
    </style>
    <clipPath id="clippath">
      <polygon class="st4" points="-.8 5.6 1081.8 5.2 1076.3 1076.4 -.8 1076.4 -.8 5.6"/>
    </clipPath>
    <clipPath id="clippath-1">
      <polygon class="st4" points="-.8 5.6 1081.8 5.2 1076.3 1076.4 -.8 1076.4 -.8 5.6"/>
    </clipPath>
    <clipPath id="clippath-2">
      <polygon class="st4" points="-.8 5.6 1081.8 5.2 1076.3 1076.4 -.8 1076.4 -.8 5.6"/>
    </clipPath>
    <clipPath id="clippath-3">
      <polygon class="st4" points="-.8 5.6 1081.8 5.2 1076.3 1076.4 -.8 1076.4 -.8 5.6"/>
    </clipPath>
    <clipPath id="clippath-4">
      <polygon class="st4" points="-.8 5.6 1081.8 5.2 1076.3 1076.4 -.8 1076.4 -.8 5.6"/>
    </clipPath>
  </defs>
  <g class="st9">
    <path class="st2" d="M575.2,423.1c0-15.9-13-28.9-28.9-28.9s-28.9,13-28.9,28.9,7.5,22.6,18.2,26.9l-12.1,28.4h45.7l-12-28.4c10.5-4.4,18-14.8,18-26.9Z"/>
  </g>
  <g class="st5">
    <path class="st6" d="M661,379.6l43.6,5.2c-19.4-8.1-48.1-22.4-75.3-52.2-1.7-.3-6.3-.8-10.2-1l-19-1.2,18.3-5.3c1.7-.5,3.4-1.1,4.7-1.6-8.5-18.5-26.3-74.3-33-95.6l-16.3,20.5,14.7-32.3c5.1-14.4,42.6-70.8,44.2-73.1l.9-1.3h1.6c5.6-.6,54.9-4.9,65.9,3.8,1.1.8,2.1,1.8,3,3-4.1-9.6-9.4-18.1-16.5-23.1-7.6-5.4-31-18.7-37-20.1-10.8-2.6-48.6,2.1-69.4,7.3l17.7,7.2-34.8-.8c-11.6,9.3-50,44.7-60.8,61.1-21.6,32.6-31.6,65.9-36.2,88.1-.6,2.8-.9,7.6-1.4,13.2-.7,9.7-1.7,22.4-4.5,33.3l49.5-14.4-59.9,33.8c-11.2,8.9-55.6,28.8-80.8,37.5l64.1,16,101.3-17.4h.4l125.2,9.4Z"/>
  </g>
  <g class="st8">
    <polyline class="st6" points="532.8 968.8 313.6 723.7 331.9 510.9 389 488.7 389 468.8 451.7 459.2 451.7 473.5 428.7 481.2 439 499.7 527.4 546.1"/>
  </g>
  <g class="st7">
    <polygon class="st3" points="542.3 979.3 550.2 979.3 778.9 723.7 760.6 510.8 703.5 488.7 703.5 468.8 640.7 459.2 640.7 473.5 663.7 481.2 653.4 499.7 558.1 549.8 534.3 549.8 542.3 979.3"/>
  </g>
  <g class="st0">
    <path class="st1" d="M625.4,383.5l-89.9-6.8-71.8,12.3c-8,13.9-12.6,30-12.6,47.2,0,52.5,42.7,95.2,95.2,95.2s95.2-42.7,95.2-95.2c0-19.5-6-37.6-16.1-52.7M579.1,484.9h-65.7l13.7-32c-9.8-6.3-16.3-17.3-16.3-29.8,0-19.6,15.9-35.5,35.5-35.5s35.5,15.9,35.5,35.5-6.5,23.4-16.3,29.8l13.6,32Z"/>
  </g>
</svg>